<svg xmlns="http://www.w3.org/2000/svg" width="32" height="32" viewBox="0 0 32 32">
    <g fill="none" fill-rule="evenodd" stroke-width="1.5">
        <path fill="#FFF" stroke="#222" stroke-linejoin="square" d="M22.683 16.557c2.046-2.01 2.076-4.946.167-6.811-1.668-1.631-4.193-1.192-6.32.908l-.527.52-.527-.52c-2.125-2.1-4.657-2.54-6.326-.908-1.909 1.865-1.879 4.8.167 6.81.62.61 1.333 1.301 2.14 2.076l.187.18c.919.88 3.285 3.129 4.356 4.15 1.067-1.017 3.422-3.255 4.356-4.15l.187-.18a269.04 269.04 0 0 0 2.14-2.075z"/>
        <path stroke="#FFF" d="M16.003 9.102c2.562-2.194 5.7-2.575 7.896-.429 2.515 2.458 2.475 6.36-.165 8.954-.625.614-1.342 1.309-2.152 2.086l-.187.18c-1.19 1.142-4.635 4.411-4.87 4.642l-.525.517-.526-.517c-.242-.238-3.7-3.52-4.868-4.641l-.188-.18a269.22 269.22 0 0 1-2.152-2.087c-2.64-2.594-2.68-6.496-.165-8.954 2.196-2.146 5.342-1.765 7.902.429z"/>
    </g>
</svg>