<svg xmlns="http://www.w3.org/2000/svg" width="32" height="32" viewBox="0 0 32 32">
    <path fill="#E83841" fill-rule="evenodd" stroke="#FFF" stroke-linejoin="round" stroke-width="1.5" d="M16.003 9.102c2.562-2.194 5.7-2.575 7.896-.429 2.515 2.458 2.475 6.36-.165 8.954-.625.614-1.342 1.309-2.152 2.086l-.187.18c-1.19 1.142-4.635 4.411-4.87 4.642l-.525.517-.526-.517c-.242-.238-3.7-3.52-4.868-4.641l-.188-.18a269.22 269.22 0 0 1-2.152-2.087c-2.64-2.594-2.68-6.496-.165-8.954 2.196-2.146 5.342-1.765 7.902.429z"/>
</svg>