<svg xmlns="http://www.w3.org/2000/svg" width="128" height="32" viewBox="0 0 128 32">
    <g fill="none" fill-rule="evenodd">
        <path stroke="#222" stroke-width="1.5" d="M16 22.962c1.067-1.017 3.422-3.255 4.356-4.15l.187-.18c.806-.774 1.52-1.466 2.14-2.075 2.046-2.01 2.076-4.946.167-6.811-1.668-1.631-4.193-1.192-6.32.908l-.527.52-.527-.52c-2.125-2.1-4.657-2.54-6.326-.908-1.909 1.865-1.879 4.8.167 6.81.62.61 1.333 1.301 2.14 2.076l.187.18c.919.88 3.285 3.129 4.356 4.15z"/>
        <path stroke="#E83841" stroke-width="1.5" d="M48 22.962c1.067-1.017 3.422-3.255 4.356-4.15l.187-.18c.806-.774 1.52-1.466 2.14-2.075 2.046-2.01 2.076-4.946.167-6.811-1.668-1.631-4.193-1.192-6.32.908l-.527.52-.527-.52c-2.125-2.1-4.657-2.54-6.326-.908-1.909 1.865-1.879 4.8.167 6.81.62.61 1.333 1.301 2.14 2.076l.187.18c.919.88 3.285 3.129 4.356 4.15z"/>
        <path fill="#E83841" d="M80 24c.747-.733 4.545-4.292 7.208-6.908 2.387-2.345 2.336-5.763.167-7.882-2.17-2.121-5.213-1.221-7.372.91-2.157-2.131-5.208-3.031-7.378-.91-2.169 2.12-2.22 5.537.167 7.882C75.455 19.708 79.254 23.267 80 24zM108.436 20.606l-4.315 4.314-1.414-1.414 4.283-4.283c-.76-.73-1.517-1.461-2.198-2.131-2.387-2.345-2.336-5.763-.167-7.882 2.17-2.121 5.221-1.221 7.378.91 1.716-1.694 3.99-2.61 5.94-1.85l4.563-4.563 1.414 1.414-4.32 4.321c1.944 2.13 1.91 5.39-.392 7.65-2.663 2.616-6.461 6.175-7.208 6.908-.433-.425-1.894-1.802-3.564-3.394zm0 0l11.163-11.164a5.671 5.671 0 0 0-.224-.232 4.252 4.252 0 0 0-1.432-.94L106.99 19.223c.486.467.974.934 1.446 1.383z"/>
    </g>
</svg>